<?xml version="1.0" standalone="no"?>
<!DOCTYPE svg PUBLIC "-//W3C//DTD SVG 20010904//EN"
 "http://www.w3.org/TR/2001/REC-SVG-20010904/DTD/svg10.dtd">
<svg version="1.0" xmlns="http://www.w3.org/2000/svg"
 width="360.000000pt" height="324.000000pt" viewBox="0 0 360.000000 324.000000"
 preserveAspectRatio="xMidYMid meet">

<g transform="translate(0.000000,324.000000) scale(0.100000,-0.100000)"
fill="#000000" stroke="none">
<path d="M3448 3233 c-10 -2 -18 -13 -18 -24 0 -17 6 -20 33 -17 24 2 32 8 32
23 0 20 -16 27 -47 18z"/>
<path d="M3340 3210 c-14 -3 -26 -14 -28 -23 -3 -13 4 -17 31 -17 21 0 37 6
40 14 8 21 -14 34 -43 26z"/>
<path d="M3233 3192 c-25 -4 -39 -30 -19 -38 25 -10 61 0 64 17 3 19 -13 27
-45 21z"/>
<path d="M3495 3180 c-67 -14 -719 -130 -729 -130 -5 0 1 -11 14 -25 16 -17
24 -38 24 -60 0 -40 10 -37 25 8 l11 32 362 84 c200 47 367 88 373 93 11 10
-25 9 -80 -2z"/>
<path d="M3104 3165 c-10 -26 10 -39 43 -28 39 13 36 37 -5 41 -22 2 -34 -2
-38 -13z"/>
<path d="M3002 3149 c-33 -13 -22 -34 19 -34 27 0 34 4 34 20 0 23 -20 28 -53
14z"/>
<path d="M2893 3133 c-15 -3 -23 -12 -23 -24 0 -17 6 -20 33 -17 24 2 32 8 32
22 0 21 -9 25 -42 19z"/>
<path d="M3549 3059 c-33 -26 -87 -38 -170 -39 -108 0 -189 -60 -189 -139 0
-21 4 -18 23 19 34 68 62 83 169 90 98 6 161 30 186 71 15 23 14 23 -19 -2z"/>
<path d="M2225 2316 c-323 -328 -573 -573 -594 -583 -22 -11 -58 -18 -92 -18
-110 1 -199 88 -199 194 0 33 -3 42 -10 31 -18 -28 -11 -122 14 -175 25 -55
82 -111 129 -127 l29 -11 -78 -78 c-54 -54 -73 -80 -63 -83 105 -39 128 -44
140 -30 15 18 28 18 50 -2 17 -15 33 -1 251 222 585 598 979 1004 1031 1060
64 70 130 104 206 107 27 1 44 5 38 9 -18 11 -132 10 -162 -2 -23 -9 -32 -6
-57 15 -16 14 -33 25 -38 25 -5 0 -15 2 -23 6 -9 3 -203 -186 -572 -560z"/>
<path d="M1375 2256 c-161 -51 -241 -149 -338 -412 -86 -233 -140 -310 -260
-369 -70 -34 -120 -47 -372 -94 -135 -25 -206 -51 -271 -100 -97 -73 -143
-180 -131 -308 17 -180 162 -465 328 -643 28 -30 40 -39 25 -20 -172 231 -296
507 -296 659 0 76 37 150 97 196 51 39 125 65 268 96 325 69 451 170 610 489
135 270 249 389 400 415 66 11 73 15 79 43 4 15 9 35 12 45 5 15 -2 17 -53 16
-32 0 -76 -6 -98 -13z"/>
<path d="M1077 1392 c-22 -24 -21 -64 2 -93 l18 -23 7 48 c5 29 13 50 24 53 8
4 72 -13 141 -37 162 -56 166 -57 101 -21 -82 45 -205 91 -243 91 -20 0 -41
-7 -50 -18z"/>
<path d="M1632 1303 c8 -109 57 -187 150 -238 44 -24 65 -30 120 -30 59 0 71
3 92 25 35 37 40 62 15 93 -25 33 -73 36 -129 7 -22 -11 -49 -20 -61 -20 -65
0 -129 69 -164 178 -9 28 -19 52 -22 52 -3 0 -4 -30 -1 -67z"/>
<path d="M882 1173 c-22 -9 -32 -48 -21 -87 13 -46 24 -46 40 2 16 50 28 64
52 56 10 -3 78 -42 149 -86 72 -43 132 -78 133 -76 6 6 -108 94 -191 148 -75
49 -119 60 -162 43z"/>
<path d="M553 940 c-29 -12 -43 -40 -43 -87 0 -66 14 -70 50 -14 51 81 54 80
234 -97 82 -81 145 -140 141 -132 -16 29 -133 176 -194 241 -81 88 -131 112
-188 89z"/>
<path d="M1689 861 c-174 -62 -265 -127 -339 -243 -38 -57 -64 -124 -115 -288
-36 -114 -70 -180 -118 -230 -78 -82 -152 -89 -329 -36 -62 19 -114 33 -116
31 -5 -5 154 -63 221 -81 77 -20 168 -14 223 14 95 48 152 148 240 416 63 195
83 237 133 289 43 47 76 64 217 117 59 22 110 43 113 45 12 13 -33 1 -130 -34z"/>
</g>
</svg>
